<svg width="1451" height="242" viewBox="0 0 1451 242" fill="none" xmlns="http://www.w3.org/2000/svg">
<path d="M127.687 238.606L41.7699 67.2034V238.606H0V12.5582H57.0516L142.969 184.3V12.5582H184.738V238.606H127.687Z" fill="#1877F2"/>
<path d="M268.053 180.227C268.053 200.252 275.184 208.059 300.314 208.059C316.275 208.059 332.915 205.683 350.913 200.252L357.366 231.478C338.688 238.606 316.275 242 296.579 242C244.621 242 226.622 217.902 226.622 178.191V134.407C226.622 99.4474 242.244 69.9186 295.22 69.9186C348.197 69.9186 360.082 100.805 360.082 136.443V171.742H268.053V180.227ZM268.053 130.334V138.48H320.69V130.334C320.69 114.721 315.935 103.86 295.56 103.86C275.184 103.86 268.053 114.721 268.053 130.334Z" fill="#1877F2"/>
<path d="M480.789 203.986L485.543 235.551C476.714 239.285 459.734 242 449.207 242C418.983 242 403.701 227.745 403.701 198.216V106.236H378.911V73.3128H403.701V32.244L445.132 26.4741V73.3128H487.581L484.864 106.236H445.132V192.785C445.132 201.61 449.207 207.38 460.074 207.38C466.186 207.38 473.658 206.022 480.789 203.986Z" fill="#1877F2"/>
<path d="M634.091 238.606H591.303V12.5582H731.215V50.2328H634.091V110.309H723.744V147.983H634.091V238.606Z" fill="#1877F2"/>
<path d="M848.191 69.9186L852.266 107.933C836.305 115.06 823.401 122.527 808.459 132.031V238.606H767.028V73.3128H802.007L804.723 91.6409C813.892 85.5315 833.589 73.9916 848.191 69.9186Z" fill="#1877F2"/>
<path d="M921.546 238.606H880.116V73.3128H921.546V238.606ZM921.546 49.8934H880.116V2.03646H921.546V49.8934Z" fill="#1877F2"/>
<path d="M1002.95 180.227C1002.95 200.252 1010.08 208.059 1035.21 208.059C1051.17 208.059 1067.81 205.683 1085.81 200.252L1092.27 231.478C1073.59 238.606 1051.17 242 1031.48 242C979.521 242 961.522 217.902 961.522 178.191V134.407C961.522 99.4474 977.144 69.9186 1030.12 69.9186C1083.1 69.9186 1094.98 100.805 1094.98 136.443V171.742H1002.95V180.227ZM1002.95 130.334V138.48H1055.59V130.334C1055.59 114.721 1050.84 103.86 1030.46 103.86C1010.08 103.86 1002.95 114.721 1002.95 130.334Z" fill="#1877F2"/>
<path d="M1271.72 238.606H1230.29V123.206C1230.29 114.381 1226.56 109.969 1217.05 109.969C1206.86 109.969 1188.86 116.079 1173.92 123.885V238.606H1132.49V73.3128H1164.07L1168.15 87.2286C1188.86 77.0463 1215.01 69.9186 1234.37 69.9186C1261.87 69.9186 1271.72 89.2651 1271.72 118.794V238.606Z" fill="#1877F2"/>
<path d="M1310.75 184.64V128.297C1310.75 91.6409 1327.05 69.9186 1365.42 69.9186C1380.03 69.9186 1396.67 71.9551 1409.57 74.6704V5.76997L1451 0V238.606H1418.06L1413.98 224.69C1399.38 235.212 1382.4 242 1361.69 242C1328.41 242 1310.75 222.314 1310.75 184.64ZM1409.57 191.767V109.63C1398.7 107.254 1384.78 105.217 1372.89 105.217C1357.95 105.217 1352.18 112.345 1352.18 127.279V185.658C1352.18 199.234 1357.27 206.701 1372.55 206.701C1386.14 206.701 1400.74 199.913 1409.57 191.767Z" fill="#1877F2"/>
</svg>
