<svg width="1264" height="240" viewBox="0 0 1264 240" fill="none" xmlns="http://www.w3.org/2000/svg">
<path d="M137.859 236.648H96.8373V122.682C96.8373 113.966 93.1387 109.609 83.724 109.609C73.6367 109.609 55.816 115.642 41.0214 123.352V236.648H0V73.4078H31.2704L35.3053 87.1509C55.816 77.095 81.7065 70.0559 100.872 70.0559C128.108 70.0559 137.859 89.162 137.859 118.324V236.648Z" fill="#1877F2"/>
<path d="M216.849 178.994C216.849 198.771 223.91 206.48 248.792 206.48C264.595 206.48 281.071 204.134 298.892 198.771L305.28 229.609C286.787 236.648 264.595 240 245.093 240C193.648 240 175.828 216.201 175.828 176.983V133.743C175.828 99.2179 191.295 70.0559 243.748 70.0559C296.202 70.0559 307.97 100.559 307.97 135.754V170.615H216.849V178.994ZM216.849 129.721V137.765H268.966V129.721C268.966 114.302 264.259 103.575 244.085 103.575C223.91 103.575 216.849 114.302 216.849 129.721Z" fill="#1877F2"/>
<path d="M427.485 202.458L432.193 233.631C423.451 237.318 406.639 240 396.215 240C366.29 240 351.159 225.922 351.159 196.76V105.922H326.613V73.4078H351.159V32.8492L392.18 27.1508V73.4078H434.21L431.52 105.922H392.18V191.397C392.18 200.112 396.215 205.81 406.975 205.81C413.027 205.81 420.424 204.469 427.485 202.458Z" fill="#1877F2"/>
<path d="M563.148 4.69274L558.777 36.2011C551.043 34.5251 541.965 33.5196 535.24 33.5196C519.101 33.5196 516.747 40.5587 516.747 52.9609V73.4078H558.441L556.087 105.922H516.747V236.648H475.725V105.922H449.499V73.4078H475.725V50.6145C475.725 16.7598 491.529 0 527.843 0C540.62 0 552.388 1.67597 563.148 4.69274Z" fill="#1877F2"/>
<path d="M667.141 70.0559L671.176 107.598C655.373 114.637 642.596 122.011 627.801 131.397V236.648H586.78V73.4078H621.412L624.102 91.5084C633.181 85.4749 652.683 74.0782 667.141 70.0559Z" fill="#1877F2"/>
<path d="M739.772 236.648H698.75V73.4078H739.772V236.648ZM739.772 50.2793H698.75V3.01676H739.772V50.2793Z" fill="#1877F2"/>
<path d="M820.375 178.994C820.375 198.771 827.436 206.48 852.318 206.48C868.121 206.48 884.597 204.134 902.418 198.771L908.806 229.609C890.313 236.648 868.121 240 848.619 240C797.174 240 779.354 216.201 779.354 176.983V133.743C779.354 99.2179 794.821 70.0559 847.274 70.0559C899.728 70.0559 911.496 100.559 911.496 135.754V170.615H820.375V178.994ZM820.375 129.721V137.765H872.492V129.721C872.492 114.302 867.785 103.575 847.61 103.575C827.436 103.575 820.375 114.302 820.375 129.721Z" fill="#1877F2"/>
<path d="M1086.49 236.648H1045.47V122.682C1045.47 113.966 1041.77 109.609 1032.36 109.609C1022.27 109.609 1004.45 115.642 989.654 123.352V236.648H948.632V73.4078H979.903L983.938 87.1509C1004.45 77.095 1030.34 70.0559 1049.5 70.0559C1076.74 70.0559 1086.49 89.162 1086.49 118.324V236.648Z" fill="#1877F2"/>
<path d="M1125.13 183.352V127.709C1125.13 91.5084 1141.27 70.0559 1179.27 70.0559C1193.73 70.0559 1210.2 72.067 1222.98 74.7486V6.7039L1264 1.00559V236.648H1231.38L1227.35 222.905C1212.89 233.296 1196.08 240 1175.57 240C1142.62 240 1125.13 220.559 1125.13 183.352ZM1222.98 190.391V109.274C1212.22 106.927 1198.43 104.916 1186.66 104.916C1171.87 104.916 1166.15 111.955 1166.15 126.704V184.358C1166.15 197.765 1171.2 205.14 1186.33 205.14C1199.78 205.14 1214.24 198.436 1222.98 190.391Z" fill="#1877F2"/>
</svg>
